<svg version="1.1" id="Layer_1" xmlns="http://www.w3.org/2000/svg" xmlns:xlink="http://www.w3.org/1999/xlink" x="0px" y="0px"
	 viewBox="0 0 96 96" style="enable-background:new 0 0 96 96;" xml:space="preserve">
<style type="text/css">
	.st0{stroke:#000000;stroke-miterlimit:10;}
	
		.st1{fill:none;stroke:#000000;stroke-width:3;stroke-linecap:round;stroke-linejoin:bevel;stroke-miterlimit:2;stroke-dasharray:5;}
	.st2{stroke:#000000;stroke-width:3;stroke-miterlimit:10;}
	.st3{stroke:#000000;stroke-width:4;stroke-miterlimit:10;}
	.st4{fill:none;stroke:#000000;stroke-width:4;stroke-miterlimit:10;}
	.st5{fill:none;stroke:#000000;stroke-width:4;stroke-linecap:round;stroke-miterlimit:10;}
	.st6{font-family:'Arial-Black';}
	.st7{font-size:18px;}
	.st8{letter-spacing:1;}
</style>
<rect x="79.4" y="48" class="st0" width="4.1" height="13.6"/>
<g>
	<polygon points="86,41.5 91.9,53.5 86,66.8 	"/>
	<path d="M84.5,34c-0.8,0-1.5,0.3-1.5,0.8V72c0,0.7,1,1.1,2,1.1c0.8,0,1.7-0.3,1.9-0.8l7.9-17.9c0.3-0.6,0.3-1.2,0-1.8L86,34.6
		C85.7,34.2,85.1,34,84.5,34L84.5,34z"/>
</g>
<line class="st1" x1="44.2" y1="56.7" x2="64.6" y2="24.9"/>
<g>
	<path d="M69.1,19c1.7,0,3,1.3,3,3v67.1c0,1.7-1.3,3-3,3H8c-1.7,0-3-1.3-3-3V22c0-1.7,1.3-3,3-3H69.1 M69.1,17H8c-2.8,0-5,2.2-5,5
		v67.1c0,2.8,2.2,5,5,5h61.1c2.8,0,5-2.2,5-5V22C74.1,19.2,71.9,17,69.1,17L69.1,17z"/>
</g>
<rect x="47.9" y="77.5" class="st2" width="2.7" height="8.3"/>
<rect x="56.3" y="71" class="st2" width="2.8" height="14.9"/>
<rect x="14.8" y="26.4" transform="matrix(-1 -1.224647e-16 1.224647e-16 -1 30.1992 71.2191)" class="st3" width="0.5" height="18.3"/>
<rect x="11.7" y="31" class="st3" width="6.5" height="5.7"/>
<ellipse class="st2" cx="47.6" cy="39.3" rx="1.6" ry="1.4"/>
<ellipse cx="54.7" cy="31.3" rx="3.6" ry="3.3"/>
<ellipse class="st2" cx="62" cy="38" rx="1.8" ry="1.7"/>
<ellipse class="st2" cx="45.8" cy="47.7" rx="1.6" ry="1.5"/>
<ellipse class="st2" cx="57.4" cy="46.7" rx="2.3" ry="2.1"/>
<g>
	<path d="M19,76.9c0,0.1,0.1,0.2,0.2,0.2h5.3c0.1,0,0.2-0.1,0.2-0.2v-3.3c0-0.1-0.1-0.2-0.2-0.2h-5.3c-0.1,0-0.2,0.1-0.2,0.2V76.9z"
		/>
	<path class="st4" d="M19,76.9c0,0.1,0.1,0.2,0.2,0.2h5.3c0.1,0,0.2-0.1,0.2-0.2v-3.3c0-0.1-0.1-0.2-0.2-0.2h-5.3
		c-0.1,0-0.2,0.1-0.2,0.2V76.9z"/>
</g>
<g>
	<path d="M29.9,85.7c0,0.1,0.1,0.2,0.2,0.2h5c0.1,0,0.2-0.1,0.2-0.2v-3.3c0-0.1-0.1-0.2-0.2-0.2h-5c-0.1,0-0.2,0.1-0.2,0.2V85.7z"/>
	<path class="st4" d="M29.9,85.7c0,0.1,0.1,0.2,0.2,0.2h5c0.1,0,0.2-0.1,0.2-0.2v-3.3c0-0.1-0.1-0.2-0.2-0.2h-5
		c-0.1,0-0.2,0.1-0.2,0.2V85.7z"/>
</g>
<ellipse class="st0" cx="44" cy="60.2" rx="1.6" ry="1.4"/>
<g>
	<path d="M8.6,85.7c0,0.1,0.1,0.2,0.2,0.2h4.9c0.1,0,0.2-0.1,0.2-0.2v-3.3c0-0.1-0.1-0.2-0.2-0.2H8.8c-0.1,0-0.2,0.1-0.2,0.2V85.7z"
		/>
	<path class="st4" d="M8.6,85.7c0,0.1,0.1,0.2,0.2,0.2h4.9c0.1,0,0.2-0.1,0.2-0.2v-3.3c0-0.1-0.1-0.2-0.2-0.2H8.8
		c-0.1,0-0.2,0.1-0.2,0.2V85.7z"/>
</g>
<g>
	<path d="M19.5,85.7c0,0.1,0.1,0.2,0.2,0.2h4.7c0.1,0,0.2-0.1,0.2-0.2v-3.3c0-0.1-0.1-0.2-0.2-0.2h-4.7c-0.1,0-0.2,0.1-0.2,0.2V85.7
		z"/>
	<path class="st4" d="M19.5,85.7c0,0.1,0.1,0.2,0.2,0.2h4.7c0.1,0,0.2-0.1,0.2-0.2v-3.3c0-0.1-0.1-0.2-0.2-0.2h-4.7
		c-0.1,0-0.2,0.1-0.2,0.2V85.7z"/>
</g>
<rect x="27.4" y="34.1" transform="matrix(-1 -1.224647e-16 1.224647e-16 -1 55.3737 86.4444)" class="st3" width="0.5" height="18.3"/>
<rect x="24.3" y="38.6" class="st3" width="6.5" height="5.7"/>
<rect x="64.7" y="63.9" class="st2" width="2.7" height="22"/>
<g>
	<path d="M8.6,67.9c0,0.1,0.1,0.2,0.2,0.2h5.3c0.1,0,0.2-0.1,0.2-0.2v-3.3c0-0.1-0.1-0.2-0.2-0.2H8.8c-0.1,0-0.2,0.1-0.2,0.2V67.9z"
		/>
	<path class="st4" d="M8.6,67.9c0,0.1,0.1,0.2,0.2,0.2h5.3c0.1,0,0.2-0.1,0.2-0.2v-3.3c0-0.1-0.1-0.2-0.2-0.2H8.8
		c-0.1,0-0.2,0.1-0.2,0.2V67.9z"/>
</g>
<g>
	<path d="M8.6,76.7c0,0.1,0.1,0.2,0.2,0.2h4.7c0.1,0,0.2-0.1,0.2-0.2v-3.3c0-0.1-0.1-0.2-0.2-0.2H8.8c-0.1,0-0.2,0.1-0.2,0.2V76.7z"
		/>
	<path class="st4" d="M8.6,76.7c0,0.1,0.1,0.2,0.2,0.2h4.7c0.1,0,0.2-0.1,0.2-0.2v-3.3c0-0.1-0.1-0.2-0.2-0.2H8.8
		c-0.1,0-0.2,0.1-0.2,0.2V76.7z"/>
</g>
<path class="st5" d="M73,21.5v67.1c0,2.4-2.1,4.4-4.7,4.4L5.9,92.2"/>
<rect x="73.4" y="48.3" class="st0" width="4.1" height="13.6"/>
<text transform="matrix(1 0 0 1 1.8096 15.0981)" class="st6 st7 st8">EXPORT</text>
</svg>
