<svg id="Layer_1" data-name="Layer 1" xmlns="http://www.w3.org/2000/svg" viewBox="0 0 91.98 93"><defs><style>.cls-1,.cls-2,.cls-3,.cls-4,.cls-5,.cls-6{stroke:#000;}.cls-1,.cls-3,.cls-4,.cls-5,.cls-6{stroke-miterlimit:10;}.cls-2,.cls-5,.cls-6{fill:none;}.cls-2,.cls-6{stroke-linecap:round;}.cls-2{stroke-linejoin:bevel;stroke-dasharray:5;}.cls-2,.cls-3{stroke-width:3px;}.cls-4,.cls-5,.cls-6{stroke-width:4px;}</style></defs><rect class="cls-1" x="76.44" y="36.92" width="4.06" height="16.4"/><polygon points="83 28.8 88.97 43.43 83 59.73 83 28.8"/><path d="M84.52,22c-.76,0-1.52.35-1.52,1V67.7c0,.84,1,1.3,2,1.3a1.93,1.93,0,0,0,1.9-1l7.89-21.5a3,3,0,0,0-.05-2.2L86,22.73A1.47,1.47,0,0,0,84.52,22Z" transform="translate(-3 -2)"/><line class="cls-2" x1="41.21" y1="47.4" x2="61.6" y2="9.13"/><path d="M69.11,4a3,3,0,0,1,3,3V89a3,3,0,0,1-3,3H8a3,3,0,0,1-3-3V7A3,3,0,0,1,8,4H69.11m0-2H8A5,5,0,0,0,3,7V89a5,5,0,0,0,5,5H69.11a5,5,0,0,0,5-5V7a5,5,0,0,0-5-5Z" transform="translate(-3 -2)"/><rect class="cls-3" x="44.95" y="72.36" width="2.71" height="10.02"/><rect class="cls-3" x="53.3" y="64.5" width="2.83" height="17.88"/><rect class="cls-4" x="14.84" y="12.95" width="0.52" height="22.05" transform="translate(27.2 45.95) rotate(180)"/><rect class="cls-4" x="8.7" y="16.42" width="6.52" height="6.88"/><ellipse class="cls-3" cx="44.56" cy="26.36" rx="1.56" ry="1.74"/><ellipse cx="51.73" cy="16.73" rx="3.58" ry="4"/><ellipse class="cls-3" cx="58.98" cy="24.81" rx="1.85" ry="2.06"/><ellipse class="cls-3" cx="42.84" cy="36.47" rx="1.63" ry="1.82"/><ellipse class="cls-3" cx="54.4" cy="35.28" rx="2.29" ry="2.56"/><rect x="16.01" y="67.4" width="5.72" height="4.49" rx="0.2"/><rect class="cls-5" x="16.01" y="67.4" width="5.72" height="4.49" rx="0.2"/><rect x="26.88" y="78.01" width="5.45" height="4.49" rx="0.2"/><rect class="cls-5" x="26.88" y="78.01" width="5.45" height="4.49" rx="0.2"/><ellipse class="cls-1" cx="40.96" cy="51.61" rx="1.56" ry="1.74"/><rect x="5.59" y="78.01" width="5.34" height="4.49" rx="0.2"/><rect class="cls-5" x="5.59" y="78.01" width="5.34" height="4.49" rx="0.2"/><rect x="16.52" y="78.01" width="5.07" height="4.49" rx="0.2"/><rect class="cls-5" x="16.52" y="78.01" width="5.07" height="4.49" rx="0.2"/><rect class="cls-4" x="27.43" y="22.11" width="0.52" height="22.05" transform="translate(52.37 64.26) rotate(180)"/><rect class="cls-4" x="21.29" y="25.58" width="6.52" height="6.88"/><rect class="cls-3" x="61.67" y="55.96" width="2.71" height="26.43"/><rect x="5.59" y="56.59" width="5.72" height="4.49" rx="0.2"/><rect class="cls-5" x="5.59" y="56.59" width="5.72" height="4.49" rx="0.2"/><rect x="5.59" y="67.19" width="5.07" height="4.49" rx="0.2"/><rect class="cls-5" x="5.59" y="67.19" width="5.07" height="4.49" rx="0.2"/><path class="cls-6" d="M73,7V87.75A5,5,0,0,1,68.26,93L5.89,92" transform="translate(-3 -2)"/><rect class="cls-1" x="70.39" y="37.2" width="4.06" height="16.4"/></svg>