<svg id="Layer_1" data-name="Layer 1" xmlns="http://www.w3.org/2000/svg" viewBox="0 0 92.68 91.95"><defs><style>.cls-1,.cls-5{fill:none;}.cls-1,.cls-2,.cls-3,.cls-4,.cls-5,.cls-6{stroke:#000;}.cls-1{stroke-linecap:round;stroke-linejoin:bevel;stroke-dasharray:5;}.cls-1,.cls-4{stroke-width:3px;}.cls-2,.cls-3,.cls-4,.cls-5,.cls-6{stroke-miterlimit:10;}.cls-2{stroke-width:6px;}.cls-3,.cls-5{stroke-width:5px;}</style></defs><line class="cls-1" x1="41.83" y1="47.4" x2="64.61" y2="9.13"/><path d="M70.65,10V86H11V10H70.65m3-8H8A5,5,0,0,0,3,7V89a5,5,0,0,0,5,5H73.65a5,5,0,0,0,5-5V7a5,5,0,0,0-5-5Z" transform="translate(-3 -2)"/><rect class="cls-2" x="43" y="68.36" width="3.03" height="10.02"/><rect class="cls-2" x="57.33" y="51.96" width="3.03" height="26.43"/><rect class="cls-3" x="15.12" y="37.26" width="0.41" height="14.24"/><rect class="cls-3" x="21.14" y="12.95" width="0.44" height="17.39" transform="translate(39.71 41.3) rotate(180)"/><rect class="cls-3" x="14.49" y="16.42" width="7.29" height="6.88"/><rect class="cls-3" x="11.51" y="42.02" width="6.99" height="6.48"/><circle class="cls-4" cx="45.57" cy="26.36" r="1.74"/><circle cx="53.58" cy="16.73" r="4"/><circle class="cls-4" cx="61.68" cy="24.81" r="2.06"/><circle class="cls-4" cx="43.65" cy="36.47" r="1.82"/><circle class="cls-4" cx="56.57" cy="35.28" r="2.56"/><rect x="12.65" y="64.4" width="6.39" height="4.49" rx="0.2"/><rect class="cls-5" x="12.65" y="64.4" width="6.39" height="4.49" rx="0.2"/><rect x="24.81" y="64.4" width="6.09" height="4.49" rx="0.2"/><rect class="cls-5" x="24.81" y="64.4" width="6.09" height="4.49" rx="0.2"/><rect class="cls-3" x="33.5" y="12.18" width="0.64" height="17.32"/><path class="cls-4" d="M36.63,18.42c-1,2.17-1.71,2.73-4.28,4.31-.92.57-1.84,1.11-1,1.71a30.15,30.15,0,0,1,5.26,4" transform="translate(-3 -2)"/><rect class="cls-2" x="72.44" y="36.92" width="7.29" height="16.4"/><polygon points="84 31.7 89.64 44.63 84 59.01 84 31.7"/><path d="M85.48,25.25c-.74,0-1.48.32-1.48.9V66.9c0,.76,1,1.18,2,1.18a1.9,1.9,0,0,0,1.85-.91l7.69-19.59a2.55,2.55,0,0,0,0-2L86.88,25.92a1.49,1.49,0,0,0-1.4-.67Z" transform="translate(-3 -2)"/><path class="cls-6" d="M37.49,20" transform="translate(-3 -2)"/><path class="cls-4" d="M37.38,29.13c.92-2.16,1.54-2.72,3.84-4.29.82-.57,1.65-1.11.88-1.71a27,27,0,0,1-4.68-4" transform="translate(-3 -2)"/><rect class="cls-3" x="28.5" y="38" width="0.34" height="13.5"/><path class="cls-4" d="M31.23,43.32c-.92,2.17-1.55,2.74-3.88,4.32-.84.56-1.67,1.11-.89,1.7a27.83,27.83,0,0,1,4.77,4" transform="translate(-3 -2)"/><path class="cls-6" d="M30.34,26.67" transform="translate(-3 -2)"/><path class="cls-4" d="M32.13,55c.91-2.17,1.52-2.73,3.78-4.3.82-.57,1.62-1.11.88-1.71a26.39,26.39,0,0,1-4.6-4" transform="translate(-3 -2)"/><circle class="cls-6" cx="41.55" cy="51.61" r="1.74"/><rect x="13.08" y="76.01" width="5.97" height="4.49" rx="0.2"/><rect class="cls-5" x="13.08" y="76.01" width="5.97" height="4.49" rx="0.2"/><rect x="25.23" y="76.01" width="5.66" height="4.49" rx="0.2"/><rect class="cls-5" x="25.23" y="76.01" width="5.66" height="4.49" rx="0.2"/></svg>