<svg id="Layer_1" data-name="Layer 1" xmlns="http://www.w3.org/2000/svg" viewBox="0 0 94 91"><defs><style>.cls-1,.cls-10,.cls-2,.cls-6,.cls-8{fill:none;}.cls-1,.cls-2,.cls-3,.cls-4,.cls-5,.cls-6{stroke:#000;}.cls-1{stroke-miterlimit:5;stroke-dasharray:2;}.cls-1,.cls-10,.cls-3,.cls-6,.cls-8{stroke-width:2px;}.cls-2{stroke-linecap:round;}.cls-10,.cls-2,.cls-3,.cls-4,.cls-5,.cls-6,.cls-8{stroke-miterlimit:10;}.cls-5{stroke-width:0.25px;}.cls-7{fill:#4d4d4d;}.cls-8{stroke:#4d4d4d;}.cls-9{fill:gray;}.cls-10{stroke:gray;}</style></defs><line class="cls-1" x1="39.5" y1="40" x2="65.5" y2="7"/><path d="M68.14,8a1,1,0,0,1,1,1V90a1,1,0,0,1-1,1H5.5a1,1,0,0,1-1-1V9a1,1,0,0,1,1-1H68.14m0-4H5.5a5,5,0,0,0-5,5V90a5,5,0,0,0,5,5H68.14a5,5,0,0,0,5-5V9a5,5,0,0,0-5-5Z" transform="translate(-0.5 -4)"/><line class="cls-2" x1="6.98" y1="8.64" x2="6.98" y2="73.5"/><rect class="cls-3" x="43.95" y="53.09" width="3.32" height="14.39"/><rect class="cls-3" x="51.48" y="47.55" width="3.32" height="19.93"/><rect class="cls-3" x="59.02" y="43.13" width="3.32" height="24.36"/><rect class="cls-3" x="11.5" y="27.37" width="0.45" height="15.62"/><rect class="cls-3" x="17.5" y="14.5" width="0.48" height="19.09" transform="translate(34.98 44.09) rotate(180)"/><rect class="cls-4" x="13" y="16.5" width="8" height="7.55"/><rect class="cls-3" x="9.73" y="32.59" width="4.43" height="5.54"/><circle class="cls-4" cx="47.1" cy="21.41" r="1.91"/><circle cx="53.89" cy="16.85" r="3.39"/><circle class="cls-4" cx="63.79" cy="15.71" r="2.27"/><circle class="cls-5" cx="45.5" cy="28.08" r="2"/><circle class="cls-5" cx="55.17" cy="28.2" r="2.8"/><rect x="10.98" y="48" width="3.94" height="4.92" rx="0.2"/><rect class="cls-6" x="10.98" y="48" width="3.94" height="4.92" rx="0.2"/><rect x="10.98" y="56.08" width="3.94" height="4.92" rx="0.2"/><rect class="cls-6" x="10.98" y="56.08" width="3.94" height="4.92" rx="0.2"/><rect x="10.98" y="64.15" width="3.94" height="4.92" rx="0.2"/><rect class="cls-6" x="10.98" y="64.15" width="3.94" height="4.92" rx="0.2"/><rect class="cls-7" x="18.32" y="48" width="3.94" height="4.92" rx="0.2"/><rect class="cls-8" x="18.32" y="48" width="3.94" height="4.92" rx="0.2"/><rect class="cls-9" x="18.32" y="56.08" width="3.94" height="4.92" rx="0.2"/><rect class="cls-10" x="18.32" y="56.08" width="3.94" height="4.92" rx="0.2"/><rect x="18.32" y="64.15" width="3.94" height="4.92" rx="0.2"/><rect class="cls-6" x="18.32" y="64.15" width="3.94" height="4.92" rx="0.2"/><rect class="cls-9" x="25.66" y="48" width="3.94" height="4.92" rx="0.2"/><rect class="cls-10" x="25.66" y="48" width="3.94" height="4.92" rx="0.2"/><rect x="25.66" y="56.08" width="3.94" height="4.92" rx="0.2"/><rect class="cls-6" x="25.66" y="56.08" width="3.94" height="4.92" rx="0.2"/><rect x="25.66" y="64.15" width="3.94" height="4.92" rx="0.2"/><rect class="cls-6" x="25.66" y="64.15" width="3.94" height="4.92" rx="0.2"/><rect class="cls-3" x="34" y="5.85" width="0.56" height="22.65"/><path class="cls-4" d="M34.5,14.5A8.88,8.88,0,0,1,32,19.23c-.54.63-1.07,1.22-.57,1.88A24.69,24.69,0,0,1,34.5,25.5" transform="translate(-0.5 -4)"/><rect class="cls-6" x="74.52" y="33.7" width="1.98" height="14.39"/><path d="M88.75,32.26l3.67,11.87-3.67,13.2V32.26M86.75,19V72L94.5,44.11,86.75,19Z" transform="translate(-0.5 -4)"/><rect class="cls-6" x="80.05" y="33.7" width="3.45" height="14.39"/><line class="cls-2" x1="7" y1="73.5" x2="66" y2="73.5"/><rect class="cls-3" x="36.59" y="58" width="3.32" height="9.48"/><circle class="cls-5" cx="60.34" cy="6.7" r="2.3"/><path class="cls-4" d="M35.44,16.22" transform="translate(-0.5 -4)"/><path class="cls-4" d="M35.32,26.26a9,9,0,0,1,2.52-4.73c.54-.62,1.08-1.21.59-1.87a24.18,24.18,0,0,1-3.06-4.4" transform="translate(-0.5 -4)"/><rect class="cls-3" x="26.15" y="21.18" width="0.56" height="22.65"/><path class="cls-4" d="M26.65,29.83c-.84,2.38-1.42,3-3.55,4.73-.77.63-1.53,1.22-.82,1.88a26.18,26.18,0,0,1,4.37,4.39" transform="translate(-0.5 -4)"/><path class="cls-4" d="M27.6,23.55" transform="translate(-0.5 -4)"/><path class="cls-4" d="M27.47,41.58c.83-2.37,1.39-3,3.46-4.71.75-.63,1.49-1.22.8-1.87a27,27,0,0,1-4.21-4.41" transform="translate(-0.5 -4)"/><path d="M20.65,80.85,21,79h8.35L29,80.85H26L24.29,89H22.08l1.7-8.15Z" transform="translate(-0.5 -4)"/><path d="M38.13,79l-.38,1.85H32.31L31.87,83h5l-.36,1.71h-5L31,87.15H36.5L36.11,89h-7.7l2.08-10Z" transform="translate(-0.5 -4)"/><path d="M39,79h2.4l1.41,3.3L45.4,79H48l-4.16,4.83L46.32,89H43.9l-1.57-3.57L39.47,89H36.82l4.54-5.27Z" transform="translate(-0.5 -4)"/><circle class="cls-4" cx="39.69" cy="39.11" r="1.91"/></svg>